inDegrees=yes
name=ik_Xsens
DataType=double
version=3
OpenSimVersion=4.4-2022-07-23-0e9fedc
endheader
time	pelvis_tilt	pelvis_list	pelvis_rotation	pelvis_tx	pelvis_ty	pelvis_tz	hip_flexion_r	hip_adduction_r	hip_rotation_r	knee_angle_r	knee_angle_r_beta	ankle_angle_r	subtalar_angle_r	mtp_angle_r	hip_flexion_l	hip_adduction_l	hip_rotation_l	knee_angle_l	knee_angle_l_beta	ankle_angle_l	subtalar_angle_l	mtp_angle_l	lumbar_extension	lumbar_bending	lumbar_rotation	arm_flex_r	arm_add_r	arm_rot_r	elbow_flex_r	pro_sup_r	wrist_flex_r	wrist_dev_r	arm_flex_l	arm_add_l	arm_rot_l	elbow_flex_l	pro_sup_l	wrist_flex_l	wrist_dev_l
31.38333333333333	0	0	0	0	0.93	0	0	0	0	0	0	0	0	0	0	0	0	0	0	0	0	0	0	0	0	-20.74720737522034	-64.00614547184624	-77.52964602886185	65.1915680505613	51.40559008604095	0	0	-51.64146475563532	-43.69581128549466	-96.60974600773439	84.99480846792902	18.2114142505886	0	0
31.4	0	0	0	0	0.93	0	0	0	0	0	0	0	0	0	0	0	0	0	0	0	0	0	0	0	0	-20.82408446314833	-63.95097591068001	-77.63473657656708	65.22252927744252	51.4388751398149	0	0	-51.63239165194052	-43.71325586885262	-96.59382636381807	84.98355877945068	18.20354012146807	0	0
31.41666666666667	0	0	0	0	0.93	0	0	0	0	0	0	0	0	0	0	0	0	0	0	0	0	0	0	0	0	-20.88748162674542	-63.91553416466389	-77.72166993219125	65.22870803747922	51.4876370800546	0	0	-51.61029796490392	-43.72600316398768	-96.57160870507647	84.98690837546711	18.19189921763218	0	0
31.43333333333333	0	0	0	0	0.93	0	0	0	0	0	0	0	0	0	0	0	0	0	0	0	0	0	0	0	0	-20.95814060629395	-63.85537516362205	-77.81622808885066	65.24629049174743	51.52526781131004	0	0	-51.57122369760936	-43.74120701358092	-96.55290988185615	84.99854373911712	18.18219669850371	0	0
31.45	-5.38492109282249e-25	-2.600876440840828e-25	-6.000192737583488e-16	2.383889269551031e-17	0.93	1.42404898505092e-17	1.425640844127412e-14	-2.130438793504473e-15	2.910115700529033e-13	0	7.757969239343771e-15	-1.402124263895185e-17	-1.01403928042887e-19	-5.368766826741606e-16	-2.077631611200107e-14	-3.546136829673792e-13	-1.328788275820699e-13	0	9.707088653677344e-15	-2.197754999067818e-17	1.308970411718011e-19	2.810354082198888e-16	7.362655903816021e-13	6.450743928558277e-13	-4.290800142415374e-13	-21.02479088023801	-63.80566811502189	-77.90939648531779	65.26218586696309	51.5663524431541	-2.249765791715948e-15	-7.845335819975672e-17	-51.51364084655398	-43.74774038939444	-96.54413099430852	85.02639371374534	18.184747017917	9.361829785736422e-15	-7.281488177206453e-16
31.46666666666667	0	0	0	0	0.93	0	0	0	0	0	0	0	0	0	0	0	0	0	0	0	0	0	0	0	0	-21.08854647610845	-63.76171437733734	-78.00396400303077	65.27123039347592	51.6035543233989	0	0	-51.45464034106347	-43.74817383633253	-96.54784604110357	85.06005234036343	18.21168233223234	0	0
31.48333333333333	0	0	0	0	0.93	0	4.594144125593695e-49	0	0	2.426570649309934e-20	0	0	0	0	4.594144125593695e-49	0	0	2.426570649309934e-20	0	0	0	0	0	0	0	-21.12721491137385	-63.72731823576736	-78.07741036443117	65.26651331295859	51.62672372397868	0	0	-51.42115930377025	-43.75895071966182	-96.56323152663595	85.06938159685556	18.24520068684581	0	0
31.5	0	0	0	0	0.93	0	4.594144125593695e-49	0	0	2.426570649309934e-20	-5.241540515187501e-23	0	0	0	4.594144125593695e-49	0	0	2.426570649309934e-20	-5.241540515187501e-23	0	0	0	0	0	0	-21.19551486429818	-63.68983698240486	-78.15710995627067	65.27236349258962	51.6478031957172	0	0	-51.36112236988184	-43.77347920259506	-96.5546546725361	85.07657350640116	18.25751266284511	0	0
31.51666666666667	0	0	0	0	0.93	0	4.594144125593695e-49	0	0	2.426570649309934e-20	0	0	0	0	4.594144125593695e-49	0	0	2.426570649309934e-20	0	0	0	0	0	0	0	-21.26015581355983	-63.65853575453364	-78.22491904857169	65.26820257749031	51.66483936514695	0	0	-51.31732771542794	-43.79343374170171	-96.55137630066069	85.09497190270137	18.29197936230437	0	0
31.53333333333333	0	0	0	0	0.93	0	4.594144125593695e-49	0	0	2.426570649309934e-20	0	0	0	0	4.594144125593695e-49	0	0	2.426570649309934e-20	0	0	0	0	0	0	0	-21.32550778417383	-63.62639888510594	-78.31341307851005	65.27169368687855	51.69094744973556	0	0	-51.25450305973096	-43.80364501472973	-96.51633252528164	85.11498860787566	18.31910307324413	0	0
31.55	0	0	0	0	0.93	0	4.594144125593695e-49	0	0	2.426570649309934e-20	0	0	0	0	4.594144125593695e-49	0	0	2.426570649309934e-20	0	0	0	0	0	0	0	-21.41444712146707	-63.56609351043537	-78.41618984644217	65.31627093799908	51.68846534796926	0	0	-51.18050162299956	-43.81131733880832	-96.47447628757233	85.16492998157068	18.40989447377859	0	0
31.56666666666667	0	0	0	0	0.93	0	4.594144125593695e-49	0	0	2.426570649309934e-20	0	0	0	0	4.594144125593695e-49	0	0	2.426570649309934e-20	0	0	0	0	0	0	0	-21.4287444433548	-63.54068108259251	-78.43918193716134	65.3022220796703	51.69506126050854	0	0	-51.15697645508973	-43.82117708015232	-96.45378980187635	85.19547885563205	18.40466300750727	0	0
31.58333333333333	0	0	0	0	0.93	0	4.594144125593695e-49	0	0	2.426570649309934e-20	0	0	0	0	4.594144125593695e-49	0	0	2.426570649309934e-20	0	0	0	0	0	0	0	-21.44850359457782	-63.50258724125503	-78.47590296086011	65.29743178569784	51.70820914197667	0	0	-51.13277870954279	-43.83586408474262	-96.43633866343045	85.22021629183429	18.4088524632986	0	0
31.6	0	0	0	0	0.93	0	0	0	0	0	0	0	0	0	0	0	0	0	0	0	0	0	0	0	0	-21.51930183972334	-63.44494694431287	-78.55798728515975	65.33461146471969	51.72183622908742	0	0	-51.08140300432279	-43.84321145969627	-96.39218356000313	85.26474136869453	18.43017638903514	0	0
31.61666666666667	0	0	0	0	0.93	0	4.594144125593695e-49	0	0	2.426570649309934e-20	0	0	0	0	4.594144125593695e-49	0	0	2.426570649309934e-20	0	0	0	0	0	0	0	-21.56479582920916	-63.41994411112796	-78.59941459035412	65.33709413387136	51.72993980774148	0	0	-51.05085996673844	-43.85255463233194	-96.3582154266102	85.28854945928705	18.43287230547506	0	0
31.63333333333333	0	0	0	0	0.93	0	4.594144125593695e-49	0	0	2.426570649309934e-20	0	0	0	0	4.594144125593695e-49	0	0	2.426570649309934e-20	0	0	0	0	0	0	0	-21.60073201609429	-63.3829148279376	-78.62843439219431	65.33532561195587	51.73543100858103	0	0	-51.03472186709764	-43.87195549799048	-96.33863714505716	85.30907504163571	18.44806808722131	0	0
31.65	0	0	0	0	0.93	0	4.594144125593695e-49	0	0	2.426570649309934e-20	5.241540515187501e-23	0	0	0	4.594144125593695e-49	0	0	2.426570649309934e-20	5.241540515187501e-23	0	0	0	0	0	0	-21.66938220273606	-63.33871057295996	-78.6969934353443	65.35780387885318	51.77700123032543	0	0	-50.97840653118931	-43.87819602345977	-96.27904419482512	85.34336606632745	18.47145376798489	0	0
31.66666666666667	0	0	0	0	0.93	0	1.148536031398424e-49	0	0	6.066426623274835e-21	9.403954806578283e-38	0	0	0	1.148536031398424e-49	0	0	6.066426623274835e-21	9.403954806578283e-38	0	0	0	0	0	0	-21.77312873534269	-63.26564308334425	-78.7983761836597	65.40178942009855	51.76447155832093	0	0	-50.88506354896097	-43.86425771718633	-96.2198477514542	85.4473476294221	18.56409624705793	0	0
31.68333333333333	0	0	0	0	0.93	0	4.594144125593695e-49	0	0	2.426570649309934e-20	-5.241540515187529e-23	0	0	0	4.594144125593695e-49	0	0	2.426570649309934e-20	-5.241540515187529e-23	0	0	0	0	0	0	-21.79148134749568	-63.24489367899696	-78.84095985175723	65.38404715806273	51.7952728327086	0	0	-50.85806495205013	-43.86680853517183	-96.18887527275045	85.47393968444058	18.56206119790086	0	0
31.7	0	0	0	0	0.93	0	4.594144125593695e-49	0	0	2.426570649309934e-20	-1.048308103037503e-22	0	0	0	4.594144125593695e-49	0	0	2.426570649309934e-20	-1.048308103037503e-22	0	0	0	0	0	0	-21.83194416139326	-63.19432153517601	-78.88499039897079	65.39939482488577	51.79726183992898	0	0	-50.80753865266529	-43.87190857266413	-96.15076953854545	85.52662364104754	18.59796585933841	0	0
